# xmcd
#
# Track frame offsets:
#	150
#	12938
#	27720
#	39573
#	53517
#	71898
#	82237
#	93718
#	102155
#	111636
#	121697
#	131556
#
# Disc length: 1899 seconds
#
# Revision: 1
# Processed by: cddbd v1.5.2PL0 Copyright (c) Steve Scherf et al.
# Submitted via: audiograbber 1.83.01
#
DISCID=aa07690c
DTITLE=Johnny Cash - Outlaw Hits
DYEAR=2008
DGENRE=Country
TTITLE0=folsom prison blues
TTITLE1=there ain't no good chain gang
TTITLE2=doin my time
TTITLE3=oney
TTITLE4=one piece at a time
TTITLE5=busted
TTITLE6=big river
TTITLE7=wreck of the old
TTITLE8=new mexico
TTITLE9=hey porter
TTITLE10=rock island line
TTITLE11=I heard that lonesome
EXTD=
EXTT0=
EXTT1=
EXTT2=
EXTT3=
EXTT4=
EXTT5=
EXTT6=
EXTT7=
EXTT8=
EXTT9=
EXTT10=
EXTT11=
PLAYORDER=
